# xmcd
#
# Track frame offsets: 
#        150
#        23934
#        48327
#        76774
#        100564
#        125181
#        149834
#        175538
#        193417
#        220349
#
# Disc length: 3192 seconds
#
# Revision: 0
# Processed by: cddbd v1.5.2PL0 Copyright (c) Steve Scherf et al.
# Submitted via: ExactAudioCopy v1.0b3
#
DISCID=8f0c760a
DTITLE=Truong Vu - No va Toi
DYEAR=1997
DGENRE=
TTITLE0=Ngay do xa roi
TTITLE1=Vong gac dem suong
TTITLE2=Chuyen tinh nguoi dan ao
TTITLE3=Trang tan tren he pho
TTITLE4=Loi ke dang trinh
TTITLE5=No va toi
TTITLE6=Loi tinh viet voi
TTITLE7=Duoc tin em lay chong
TTITLE8=Ngo hon qua dem
TTITLE9=Tinh bo vo
EXTD=
EXTT0=
EXTT1=
EXTT2=
EXTT3=
EXTT4=
EXTT5=
EXTT6=
EXTT7=
EXTT8=
EXTT9=
PLAYORDER=
